<?xml version="1.0" encoding="UTF-8"?>
<!DOCTYPE svg PUBLIC "-//W3C//DTD SVG 1.1//EN" "http://www.w3.org/Graphics/SVG/1.1/DTD/svg11.dtd">
<svg xmlns="http://www.w3.org/2000/svg" version="1.1" width="55px" height="55px" style="shape-rendering:geometricPrecision; text-rendering:geometricPrecision; image-rendering:optimizeQuality; fill-rule:evenodd; clip-rule:evenodd" xmlns:xlink="http://www.w3.org/1999/xlink">
<g><path style="opacity:0.925" fill="#8d8e8f" d="M 28.5,4.5 C 28.5,5.16667 28.5,5.83333 28.5,6.5C 24.7408,6.8621 21.4075,8.19543 18.5,10.5C 18.5,10.1667 18.5,9.83333 18.5,9.5C 20.9826,6.25861 24.3159,4.59195 28.5,4.5 Z"/></g>
<g><path style="opacity:1" fill="#8e9091" d="M 28.5,4.5 C 30.7105,5.12285 32.7105,6.12285 34.5,7.5C 35.1667,7.5 35.5,7.83333 35.5,8.5C 34.1667,8.83333 34.1667,9.16667 35.5,9.5C 35.5,10.1667 35.1667,10.5 34.5,10.5C 32.8102,8.65832 30.8102,7.32498 28.5,6.5C 28.5,5.83333 28.5,5.16667 28.5,4.5 Z"/></g>
<g><path style="opacity:1" fill="#9d9ea0" d="M 18.5,9.5 C 18.5,9.83333 18.5,10.1667 18.5,10.5C 15.2541,14.5689 13.5875,19.2356 13.5,24.5C 12.8333,24.5 12.1667,24.5 11.5,24.5C 11.9761,18.5518 14.3094,13.5518 18.5,9.5 Z"/></g>
<g><path style="opacity:0.082" fill="#a0a1a3" d="M 34.5,7.5 C 34.56,6.95691 34.8933,6.62358 35.5,6.5C 36.7596,8.35289 36.7596,10.1862 35.5,12C 38.4911,15.8115 40.4911,19.9781 41.5,24.5C 41.1667,25.1667 40.8333,25.8333 40.5,26.5C 38.7085,21.1301 36.7085,15.7968 34.5,10.5C 35.1667,10.5 35.5,10.1667 35.5,9.5C 35.5,9.16667 35.5,8.83333 35.5,8.5C 35.5,7.83333 35.1667,7.5 34.5,7.5 Z"/></g>
<g><path style="opacity:1" fill="#8c8d8f" d="M 19.5,26.5 C 17.5698,30.3727 16.9031,34.706 17.5,39.5C 16.3448,32.3451 16.1782,25.0118 17,17.5C 18.2975,16.2164 19.4642,16.3831 20.5,18C 19.5562,20.7191 19.2229,23.5525 19.5,26.5 Z"/></g>
<g><path style="opacity:1" fill="#828486" d="M 22.5,26.5 C 22.6716,25.5084 22.3382,24.8417 21.5,24.5C 22.0585,20.7023 24.0585,18.0357 27.5,16.5C 27.0065,20.1561 25.3398,23.4894 22.5,26.5 Z"/></g>
<g><path style="opacity:0.576" fill="#696a6b" d="M 31.5,18.5 C 33.256,19.5521 33.9227,21.2188 33.5,23.5C 32.8333,24.1667 32.1667,24.8333 31.5,25.5C 30.8968,23.3743 30.8968,21.0409 31.5,18.5 Z"/></g>
<g><path style="opacity:1" fill="#6d6f6f" d="M 19.5,26.5 C 19.8333,26.5 20.1667,26.5 20.5,26.5C 22.1376,27.7046 22.4709,29.0379 21.5,30.5C 20.3554,33.6781 19.0221,36.6781 17.5,39.5C 16.9031,34.706 17.5698,30.3727 19.5,26.5 Z"/></g>
<g><path style="opacity:1" fill="#868889" d="M 31.5,18.5 C 30.8968,21.0409 30.8968,23.3743 31.5,25.5C 31.5,26.5 31.5,27.5 31.5,28.5C 30.5,27.1667 29.5,27.1667 28.5,28.5C 28.8993,24.8835 29.8993,21.5502 31.5,18.5 Z"/></g>
<g><path style="opacity:0.216" fill="#858788" d="M 43.5,29.5 C 42.8333,29.8333 42.1667,30.1667 41.5,30.5C 41.7678,28.901 41.4345,27.5676 40.5,26.5C 40.8333,25.8333 41.1667,25.1667 41.5,24.5C 42.1894,23.2264 43.0228,23.2264 44,24.5C 44.3845,26.1966 44.2178,27.8632 43.5,29.5 Z"/></g>
<g><path style="opacity:1" fill="#828586" d="M 37.5,31.5 C 37.1667,31.5 36.8333,31.5 36.5,31.5C 36.1667,30.5 35.5,29.8333 34.5,29.5C 33.6586,27.6208 33.3253,25.6208 33.5,23.5C 33.9227,21.2188 33.256,19.5521 31.5,18.5C 31.7058,16.4508 32.5391,16.1175 34,17.5C 35.4836,22.1012 36.6503,26.7679 37.5,31.5 Z"/></g>
<g><path style="opacity:1" fill="#7c7d7e" d="M 31.5,28.5 C 31.5,29.1667 31.1667,29.5 30.5,29.5C 29.1667,30.5 29.1667,31.5 30.5,32.5C 30.5,32.8333 30.5,33.1667 30.5,33.5C 29.8333,34.8333 29.1667,36.1667 28.5,37.5C 28.7678,35.901 28.4345,34.5676 27.5,33.5C 27.366,31.7085 27.6993,30.0418 28.5,28.5C 29.5,27.1667 30.5,27.1667 31.5,28.5 Z"/></g>
<g><path style="opacity:1" fill="#6b6d6e" d="M 30.5,29.5 C 31.8333,30.8333 33.1667,30.8333 34.5,29.5C 35.5,29.8333 36.1667,30.5 36.5,31.5C 34.7354,32.4614 32.7354,32.7947 30.5,32.5C 29.1667,31.5 29.1667,30.5 30.5,29.5 Z"/></g>
<g><path style="opacity:1" fill="#7d7f80" d="M 21.5,24.5 C 22.3382,24.8417 22.6716,25.5084 22.5,26.5C 23.7729,28.7128 24.7729,31.0462 25.5,33.5C 24.596,34.209 24.2627,35.209 24.5,36.5C 22.9925,34.8185 21.9925,32.8185 21.5,30.5C 22.4709,29.0379 22.1376,27.7046 20.5,26.5C 20.3284,25.5084 20.6618,24.8417 21.5,24.5 Z"/></g>
<g><path style="opacity:1" fill="#858788" d="M 36.5,31.5 C 36.8333,31.5 37.1667,31.5 37.5,31.5C 38.0549,34.096 39.0549,36.4293 40.5,38.5C 40.5,39.1667 40.5,39.8333 40.5,40.5C 40.1667,40.5 39.8333,40.5 39.5,40.5C 38.791,39.596 37.791,39.2627 36.5,39.5C 36.1667,37.5 35.8333,35.5 35.5,33.5C 33.8333,33.5 32.1667,33.5 30.5,33.5C 30.5,33.1667 30.5,32.8333 30.5,32.5C 32.7354,32.7947 34.7354,32.4614 36.5,31.5 Z"/></g>
<g><path style="opacity:1" fill="#a5a6a8" d="M 11.5,24.5 C 12.1667,24.5 12.8333,24.5 13.5,24.5C 12.7865,28.862 13.1198,33.1953 14.5,37.5C 13.6618,37.8417 13.3284,38.5084 13.5,39.5C 11.7623,34.7831 11.0956,29.7831 11.5,24.5 Z"/></g>
<g><path style="opacity:1" fill="#a6a7a9" d="M 43.5,29.5 C 43.2576,33.479 42.2576,37.1456 40.5,40.5C 40.5,39.8333 40.5,39.1667 40.5,38.5C 41.0916,35.8728 41.4249,33.2062 41.5,30.5C 42.1667,30.1667 42.8333,29.8333 43.5,29.5 Z"/></g>
<g><path style="opacity:1" fill="#727375" d="M 25.5,33.5 C 26.1667,33.5 26.8333,33.5 27.5,33.5C 28.4345,34.5676 28.7678,35.901 28.5,37.5C 28.5299,38.4972 28.0299,39.1639 27,39.5C 25.2509,39.2517 24.4176,38.2517 24.5,36.5C 24.2627,35.209 24.596,34.209 25.5,33.5 Z"/></g>
<g><path style="opacity:0.792" fill="#9a9c9e" d="M 14.5,37.5 C 15.3084,40.4502 16.6418,43.1169 18.5,45.5C 17.8333,45.5 17.5,45.8333 17.5,46.5C 15.412,44.6644 14.0787,42.3311 13.5,39.5C 13.3284,38.5084 13.6618,37.8417 14.5,37.5 Z"/></g>
<g><path style="opacity:1" fill="#989a9c" d="M 39.5,40.5 C 39.8333,40.5 40.1667,40.5 40.5,40.5C 39.1304,46.5364 35.4637,50.2031 29.5,51.5C 29.1667,50.8333 28.8333,50.1667 28.5,49.5C 33.6423,48.3625 37.3089,45.3625 39.5,40.5 Z"/></g>
<g><path style="opacity:0.594" fill="#919395" d="M 18.5,45.5 C 21.0997,48.4603 24.433,49.7937 28.5,49.5C 28.8333,50.1667 29.1667,50.8333 29.5,51.5C 24.471,52.5638 20.471,50.8971 17.5,46.5C 17.5,45.8333 17.8333,45.5 18.5,45.5 Z"/></g>
</svg>
